<?xml version="1.0" encoding="UTF-8"?>
<svg version="1.1" xmlns="http://www.w3.org/2000/svg" width="1254" height="1254">
<path d="M0 0 C413.82 0 827.64 0 1254 0 C1254 413.82 1254 827.64 1254 1254 C840.18 1254 426.36 1254 0 1254 C0 840.18 0 426.36 0 0 Z " fill="#FCFCFC" transform="translate(0,0)"/>
<path d="M0 0 C1.31461212 0.00045822 2.62922424 0.00091644 3.9836731 0.00138855 C6.74161236 0.00293504 9.49941846 0.01107759 12.25732422 0.0246582 C15.73882295 0.04161388 19.22017766 0.04537121 22.70171261 0.04486179 C42.06550774 0.04542442 61.0487255 0.55164247 80.2578125 3.16796875 C81.54236328 3.33748047 82.82691406 3.50699219 84.15039062 3.68164062 C87.95856675 4.18721878 91.76453041 4.70720462 95.5703125 5.23046875 C96.82440918 5.39836914 98.07850586 5.56626953 99.37060547 5.73925781 C105.465852 6.57400105 111.37931909 7.50800163 117.3203125 9.10546875 C122.12159122 10.37222895 126.91656574 11.53179394 131.78076172 12.53076172 C143.52077731 14.96986715 154.88836294 18.52838045 166.29931641 22.18359375 C168.4012319 22.85630711 170.50494264 23.52345061 172.61083984 24.18359375 C207.31307831 35.06514602 241.58983522 50.08693709 272.5703125 69.23046875 C273.34729492 69.70548828 274.12427734 70.18050781 274.92480469 70.66992188 C300.2591164 86.1957536 324.06630925 103.91511935 346.03369141 123.92895508 C347.62614135 125.37380837 349.22542747 126.81119984 350.83447266 128.23754883 C356.86609438 133.59192036 362.64974263 139.15394655 368.33959961 144.86938477 C369.76368742 146.29886592 371.19309294 147.72287386 372.62304688 149.14648438 C377.81595106 154.34662605 382.80743466 159.63543498 387.5703125 165.23046875 C388.53106505 166.3255252 389.49325205 167.41932517 390.45703125 168.51171875 C397.41611365 176.47915047 403.86911159 184.73286185 410.12207031 193.26318359 C411.50634309 195.14357301 412.90643384 197.01087413 414.3125 198.875 C425.84513458 214.24419662 436.13627925 230.4984751 445.5703125 247.23046875 C446.05967285 248.09559082 446.5490332 248.96071289 447.05322266 249.85205078 C453.67993939 261.63815456 459.85260829 273.60490437 465.5703125 285.85546875 C466.36175659 287.54216675 466.36175659 287.54216675 467.16918945 289.26293945 C470.33211188 296.14182768 473.04269802 303.06370304 475.49829102 310.21704102 C476.39395455 312.73473061 477.37012604 315.12827453 478.5078125 317.54296875 C491.84757964 346.74045104 499.35635454 381.06805421 504.17773438 412.68652344 C504.55082552 415.10419118 504.95431285 417.51463399 505.3671875 419.92578125 C513.54940151 468.90585228 514.06837281 522.14105757 505.14550781 571.05273438 C504.52565448 574.47718722 503.94832427 577.90730779 503.375 581.33984375 C491.61434103 650.87076672 464.40534064 722.02365012 421.80517578 778.58789062 C420.4414534 780.40187327 419.09747199 782.22963708 417.75390625 784.05859375 C411.09606195 793.07773305 404.13523589 801.8197209 397.00878906 810.47167969 C395.76176951 811.99637909 394.53521451 813.53777244 393.3125 815.08203125 C380.71944673 830.93108309 366.08086033 846.39130862 350.6015625 859.4765625 C348.50337691 861.28826505 346.48137567 863.17141169 344.45898438 865.06689453 C338.08532738 871.01906776 331.40457717 876.43318641 324.48925781 881.73974609 C322.5040216 883.28196649 320.54753362 884.85566309 318.59375 886.4375 C290.73439228 908.82604559 258.98355329 927.60352701 226.46728516 942.35546875 C224.70033291 943.17049537 222.95270492 944.02706064 221.20703125 944.88671875 C194.50155637 957.94683565 165.3825854 967.17452202 136.5703125 974.23046875 C135.70921875 974.44300293 134.848125 974.65553711 133.9609375 974.87451172 C110.63425168 980.60926956 87.45603598 984.81100321 63.47680664 986.58422852 C62.03809204 986.69142212 62.03809204 986.69142212 60.5703125 986.80078125 C59.301875 986.88996826 59.301875 986.88996826 58.0078125 986.98095703 C55.57370518 987.18411418 55.57370518 987.18411418 53.23867798 987.73797607 C50.57155737 988.23023899 48.14817147 988.35739466 45.43896484 988.35986328 C43.93987076 988.36459152 43.93987076 988.36459152 42.41049194 988.36941528 C41.3365921 988.36739105 40.26269226 988.36536682 39.15625 988.36328125 C38.03199615 988.36423798 36.90774231 988.3651947 35.74942017 988.36618042 C33.36387069 988.36686087 30.97831936 988.36501599 28.59277344 988.36083984 C25.00711693 988.35555976 21.42158975 988.36075273 17.8359375 988.3671875 C0.64605123 988.37346219 -16.4538921 988.21547645 -33.4921875 985.73046875 C-35.35786598 985.46857365 -37.22375079 985.20814405 -39.08984375 984.94921875 C-39.97478516 984.82554932 -40.85972656 984.70187988 -41.77148438 984.57446289 C-45.24034555 984.12556269 -48.71537921 983.79408854 -52.19946289 983.48803711 C-55.21834923 983.13938631 -58.11745061 982.45648373 -61.0703125 981.75390625 C-63.55683895 981.20225965 -66.03714883 980.80360329 -68.5546875 980.41796875 C-113.37507195 973.04246245 -158.23763638 957.44049547 -198.43603516 936.27441406 C-200.73101578 935.07268284 -203.03902526 933.89794324 -205.34765625 932.72265625 C-237.34204237 916.33731126 -267.86505406 896.33487654 -294.88037109 872.56933594 C-297.28128969 870.49454274 -299.76393078 868.52420303 -302.2421875 866.54296875 C-306.55131248 863.04891286 -310.45561509 859.3111537 -314.32421875 855.33984375 C-316.25147617 853.40901071 -318.22907314 851.62374062 -320.3046875 849.85546875 C-327.58340249 843.59373988 -334.33362653 836.68069573 -340.5625 829.37890625 C-342.4576713 827.19826982 -344.40937824 825.07634394 -346.375 822.95922852 C-351.98438377 816.91209058 -357.29216736 810.68731804 -362.4296875 804.23046875 C-362.84154297 803.71822754 -363.25339844 803.20598633 -363.67773438 802.67822266 C-404.30930136 752.13316433 -432.74835032 694.18092744 -451.4296875 632.23046875 C-451.83912598 630.88154541 -451.83912598 630.88154541 -452.25683594 629.50537109 C-460.07642774 603.3933473 -464.44858175 576.28502707 -467.4296875 549.23046875 C-467.51689056 548.4737085 -467.60409363 547.71694824 -467.69393921 546.93725586 C-469.56334803 530.41294012 -469.78877744 513.97275978 -469.7421875 497.35546875 C-469.74026425 495.99413057 -469.73842372 494.63279226 -469.73666382 493.27145386 C-469.69940915 473.44554767 -469.31074661 453.87857367 -466.4296875 434.23046875 C-466.24744629 432.97476074 -466.06520508 431.71905273 -465.87744141 430.42529297 C-464.56970493 421.66007181 -463.06812166 412.93958525 -461.4296875 404.23046875 C-461.13191406 402.64613037 -461.13191406 402.64613037 -460.828125 401.02978516 C-455.48505627 373.11670361 -448.20666912 345.56091239 -437.4296875 319.23046875 C-437.08010986 318.36268799 -436.73053223 317.49490723 -436.37036133 316.60083008 C-430.00721546 300.83388083 -423.01542744 285.4461576 -415.4296875 270.23046875 C-415.01251465 269.39209473 -414.5953418 268.5537207 -414.16552734 267.68994141 C-404.49489066 248.41596269 -393.39042164 229.71051404 -380.82617188 212.18017578 C-379.31321951 210.06786152 -377.81694154 207.94421872 -376.3203125 205.8203125 C-369.08686206 195.61677833 -361.46146559 185.81599149 -353.4296875 176.23046875 C-352.64198975 175.2861499 -352.64198975 175.2861499 -351.83837891 174.32275391 C-346.28637414 167.68407617 -340.64944775 161.2791403 -334.44140625 155.23828125 C-332.50401537 153.30465229 -330.71018593 151.30839598 -328.9296875 149.23046875 C-323.33565871 142.73209351 -317.22173085 136.80985877 -310.71484375 131.234375 C-308.36537387 129.17407064 -306.08017934 127.05674456 -303.79711914 124.92358398 C-297.54258359 119.0853509 -291.13795727 113.54758334 -284.4296875 108.23046875 C-283.21856602 107.24241297 -282.00764207 106.25411505 -280.796875 105.265625 C-271.30035444 97.60916966 -261.38581441 90.67770457 -251.2421875 83.91796875 C-250.61960052 83.50203461 -249.99701355 83.08610046 -249.3555603 82.65756226 C-210.37673914 56.67788745 -168.19475255 36.12539682 -123.4296875 22.23046875 C-122.54555176 21.95283691 -121.66141602 21.67520508 -120.75048828 21.38916016 C-91.54652766 12.29301429 -62.21845325 6.18382099 -31.87811279 2.54750061 C-29.94580617 2.29729785 -28.01712807 2.01907535 -26.09014893 1.73069763 C-17.33432908 0.45528181 -8.84189551 -0.05184616 0 0 Z " fill="#121B3E" transform="translate(602.4296875,119.76953125)"/>
<path d="M0 0 C0.84691406 -0.00773438 1.69382812 -0.01546875 2.56640625 -0.0234375 C11.68274174 0.0044839 19.00687492 1.56099168 26.75 6.4375 C27.72755249 7.04404419 27.72755249 7.04404419 28.72485352 7.6628418 C41.82175411 15.99095009 48.9401577 28.56874289 54.5 42.8125 C55.25819169 44.70439086 56.02161632 46.59412631 56.78491211 48.48396301 C57.33613282 49.85001606 57.88573705 51.21672234 58.43383789 52.58403015 C61.77278908 60.90516707 65.24903642 69.16862762 68.71975708 77.43545532 C69.88468964 80.21058286 71.04792143 82.98641771 72.21069336 85.76245117 C79.82380411 103.93549442 87.46744024 122.09564824 95.125 140.25 C95.68957916 141.58862091 95.68957916 141.58862091 96.26556396 142.95428467 C107.26008102 169.02987996 107.26008102 169.02987996 118.30078125 195.0859375 C118.62475891 195.84857407 118.94873657 196.61121063 119.28253174 197.3969574 C120.77415845 200.90765539 122.26701421 204.41782127 123.76220703 207.92700195 C125.91979518 212.99741816 128.06959903 218.06669629 130.0859375 223.1953125 C131.73253391 227.35596593 133.51315287 231.4519046 135.32421875 235.54296875 C135.60726364 236.18447372 135.89030853 236.8259787 136.18193054 237.48692322 C137.35491354 240.14471154 138.52814838 242.80226601 139.71508789 245.45385742 C140.5928354 247.41761125 141.45936217 249.38600998 142.32421875 251.35546875 C142.83815186 252.51199951 143.35208496 253.66853027 143.8815918 254.86010742 C145.16233447 258.35178462 145.73437021 261.56058825 146.125 265.25 C146.785 265.25 147.445 265.25 148.125 265.25 C148.38369873 264.55068359 148.64239746 263.85136719 148.90893555 263.13085938 C150.24418632 259.96764735 151.84451496 257.11792036 153.58203125 254.15625 C153.92135178 253.57642365 154.2606723 252.99659729 154.61027527 252.39920044 C155.71550187 250.51384249 156.82619216 248.63177887 157.9375 246.75 C158.70768567 245.44059444 159.47786794 244.13118687 160.24804688 242.82177734 C165.80286769 233.39825702 171.50293405 224.07145396 177.296875 214.79296875 C180.05427176 210.3765687 182.74260664 205.92368388 185.41015625 201.45239258 C189.28240894 194.96927693 193.20403853 188.51621984 197.125 182.0625 C197.86059607 180.85148134 198.59619177 179.64046246 199.33178711 178.42944336 C202.34226598 173.47377754 205.35370193 168.51869366 208.36572266 163.56396484 C217.32929182 148.81873419 226.2659768 134.0583742 235.125 119.25 C243.618977 105.05182181 252.18235915 90.89665245 260.77752686 76.75958252 C263.77619069 71.82648814 266.76793847 66.88922491 269.75837708 61.95114136 C272.92955096 56.71602574 276.11184741 51.48773596 279.29638672 46.26074219 C280.90676511 43.60931544 282.50446724 40.95083365 284.09765625 38.2890625 C293.44579093 22.79452053 304.95133919 9.55190983 322.79296875 4.13671875 C335.95783888 1.03157848 351.41654298 1.91636508 363.0078125 9.015625 C375.0934536 17.38007416 384.66985968 27.37041717 387.79541016 42.12255859 C388.46770853 46.46212008 388.5721477 50.80263344 388.625 55.1875 C388.64344971 56.06809082 388.66189941 56.94868164 388.6809082 57.85595703 C388.56045605 70.90533812 383.97981605 81.61360239 376.9375 92.375 C375.8674983 94.06034207 374.79754592 95.74571713 373.73002625 97.43263245 C372.99078003 98.59877322 372.24931732 99.76351173 371.50569153 100.92686462 C367.74099365 106.81747355 364.1223122 112.79314996 360.51300049 118.77978516 C354.22355928 129.2049596 347.85136712 139.57771562 341.4296875 149.921875 C332.01439395 165.08936917 322.68324357 180.30861548 313.41430664 195.56591797 C308.33949596 203.91320305 303.21816123 212.23146201 298.0925293 220.54760742 C293.68378418 227.70495207 289.30116054 234.87759137 284.9375 242.0625 C280.00668953 250.1805686 275.02863502 258.26765918 270.01879883 266.3371582 C266.01908187 272.78696673 262.06420333 279.26308295 258.125 285.75 C253.17755118 293.89565513 248.191707 302.01596494 243.16674805 310.11401367 C239.438982 316.12270621 235.72751492 322.14118801 232.02587891 328.16601562 C230.64086426 330.41856692 229.25384017 332.66988398 227.86474609 334.91992188 C224.9792506 339.5942709 222.10024257 344.26887909 219.30859375 349 C205.54661323 372.13241284 186.2494799 387.1235066 160.04296875 393.81323242 C141.60678695 398.01159409 121.60648149 394.62537786 105.41015625 384.8203125 C101.49863787 382.1323973 97.78163083 379.27319872 94.125 376.25 C93.114375 375.486875 92.10375 374.72375 91.0625 373.9375 C79.56979689 363.42289928 73.27676041 349.85367904 67.375 335.75 C66.72151286 334.20449135 66.06719274 332.65933469 65.41210938 331.11450195 C64.02251697 327.83616684 62.63624799 324.55645418 61.25195312 321.27587891 C59.16938398 316.34713989 57.06497239 311.4279735 54.953125 306.51171875 C54.42621315 305.28508011 54.42621315 305.28508011 53.88865662 304.03366089 C53.16728106 302.35464733 52.44583974 300.67566203 51.72433472 298.9967041 C44.21463423 281.51444324 36.76160854 264.00814138 29.3125 246.5 C21.7505896 228.7269668 14.14116844 210.97684257 6.43457031 193.26611328 C4.31803878 188.39146179 2.2192051 183.50927784 0.125 178.625 C-0.21321777 177.83730225 -0.55143555 177.04960449 -0.89990234 176.23803711 C-2.6275693 172.20349788 -4.32621035 168.15874667 -6 164.1015625 C-10.16087388 154.09542428 -14.54223045 144.18252226 -18.875 134.25 C-20.6469364 130.18797973 -22.41803741 126.12559856 -24.1875 122.0625 C-24.60963272 121.0932106 -25.03176544 120.1239212 -25.46669006 119.1252594 C-27.94499138 113.42321224 -30.36451838 107.7008761 -32.73388672 101.95263672 C-34.05596869 98.82138994 -35.44600954 95.72534001 -36.84765625 92.62890625 C-37.35490234 91.50806641 -37.86214844 90.38722656 -38.38476562 89.23242188 C-39.41912127 86.9542373 -40.45818095 84.67818258 -41.50195312 82.40429688 C-46.11887178 72.16473589 -50.68106833 61.72976562 -50.4375 50.3125 C-50.42654297 49.55380615 -50.41558594 48.7951123 -50.40429688 48.01342773 C-49.84138316 33.11654161 -42.57325141 21.45029608 -32 11.375 C-22.51289644 3.22862383 -12.38992187 -0.11212599 0 0 Z " fill="#8877FB" transform="translate(564.875,513.75)"/>
<path d="M0 0 C12.31576717 9.02499418 22.82858416 21.29273131 25.44140625 36.7890625 C25.53128744 38.51935871 25.57387907 40.25252051 25.57842064 41.98514366 C25.58349518 43.01693351 25.58856972 44.04872336 25.59379804 45.11177957 C25.5942958 46.23870426 25.59479356 47.36562896 25.5953064 48.52670288 C25.60187978 50.33033308 25.60187978 50.33033308 25.60858595 52.17040026 C25.61963238 55.50502188 25.62619273 58.83959673 25.63076711 62.17422986 C25.6367351 65.77229076 25.64834209 69.37033449 25.65905762 72.96838379 C25.68355671 81.65757988 25.69820639 90.34678164 25.71111768 99.03600162 C25.71483184 101.49212727 25.71880491 103.94825237 25.72287035 106.40437746 C25.74811231 121.67069911 25.77015607 136.9370217 25.7825985 152.2033596 C25.78552799 155.73794941 25.78848968 159.27253918 25.79150391 162.80712891 C25.79224996 163.68558871 25.79299601 164.56404852 25.79376467 165.46912833 C25.8064059 179.6850965 25.83961363 193.90093926 25.88130574 208.11684887 C25.92380114 222.72701074 25.9473024 237.33710854 25.95251906 251.94733202 C25.95592487 260.14428859 25.9675815 268.34104926 26.0006218 276.53794479 C26.02872841 283.52214651 26.03957548 290.50611216 26.02842633 297.49036603 C26.02326634 301.04881604 26.02595061 304.60677253 26.05089188 308.16514969 C26.23233265 335.52214991 26.23233265 335.52214991 20.44140625 347.7890625 C20.04230734 348.66411627 19.64320843 349.53917004 19.23201561 350.44074059 C12.59551556 364.22141112 0.29010091 372.76218806 -13.67578125 377.84375 C-26.75495358 382.13258429 -41.16207066 380.59335235 -53.55859375 374.7890625 C-57.57581795 372.46304009 -61.06803825 369.84116323 -64.55859375 366.7890625 C-65.29722656 366.16 -66.03585937 365.5309375 -66.796875 364.8828125 C-76.32404899 356.12714224 -82.50877101 342.69886262 -83.05637169 329.76173878 C-83.07548825 327.60229597 -83.07328415 325.44259016 -83.05307007 323.28315735 C-83.0578989 322.0827735 -83.06272773 320.88238965 -83.06770289 319.64563054 C-83.07695483 316.34923443 -83.06849501 313.05346059 -83.05217433 309.75711048 C-83.03891965 306.18859405 -83.04893889 302.62012893 -83.05593872 299.05160522 C-83.06598199 292.07576329 -83.05479167 285.10011216 -83.03623812 278.12429396 C-83.01539338 269.99262908 -83.01561251 261.86100462 -83.01658328 253.72931805 C-83.01758282 239.21786139 -82.99930614 224.70649313 -82.97021484 210.19506836 C-82.94202783 196.12734365 -82.92787413 182.0596967 -82.92919922 167.99194336 C-82.92927913 167.12499497 -82.92935904 166.25804657 -82.92944138 165.36482701 C-82.92952209 164.49934695 -82.9296028 163.63386688 -82.92968595 162.74216014 C-82.93106694 146.70322323 -82.91928014 130.66431921 -82.90137952 114.62539298 C-82.89535749 108.962346 -82.89322168 103.29930509 -82.89231491 97.63625526 C-82.89094815 90.73369974 -82.88198385 83.8311997 -82.86364929 76.9286677 C-82.85444068 73.40956199 -82.84831219 69.89052703 -82.85083771 66.37140846 C-82.85344562 62.55222255 -82.84049198 58.7331781 -82.82601929 54.91401672 C-82.82911649 53.80836988 -82.8322137 52.70272304 -82.83540475 51.56357175 C-82.73215736 35.05469609 -77.23698935 19.69344224 -65.80859375 7.5390625 C-58.42803165 0.60019427 -50.41043605 -3.92797939 -40.55859375 -6.2109375 C-39.96949219 -6.39398438 -39.38039063 -6.57703125 -38.7734375 -6.765625 C-25.72767979 -9.38858158 -11.12879428 -7.25247267 0 0 Z " fill="#E5D5FC" transform="translate(449.55859375,517.2109375)"/>
<path d="M0 0 C11.3571469 8.83697309 19.97674193 18.57654016 22.25 33.25 C22.58654368 36.8981335 22.70585406 40.52495213 22.75 44.1875 C22.76844971 45.06809082 22.78689941 45.94868164 22.8059082 46.85595703 C22.68545605 59.90533812 18.10481605 70.61360239 11.0625 81.375 C9.9924983 83.06034207 8.92254592 84.74571713 7.85502625 86.43263245 C7.11578003 87.59877322 6.37431732 88.76351173 5.63069153 89.92686462 C1.86599365 95.81747355 -1.7526878 101.79314996 -5.36199951 107.77978516 C-11.65144072 118.2049596 -18.02363288 128.57771562 -24.4453125 138.921875 C-33.86060605 154.08936917 -43.19175643 169.30861548 -52.46069336 184.56591797 C-57.53550404 192.91320305 -62.65683877 201.23146201 -67.7824707 209.54760742 C-72.19121582 216.70495207 -76.57383946 223.87759137 -80.9375 231.0625 C-85.86831047 239.1805686 -90.84636498 247.26765918 -95.85620117 255.3371582 C-99.85591813 261.78696673 -103.81079667 268.26308295 -107.75 274.75 C-112.69744882 282.89565513 -117.683293 291.01596494 -122.70825195 299.11401367 C-126.43631271 305.12318125 -130.14780559 311.14230676 -133.8503418 317.16723633 C-135.90047553 320.50227081 -137.95387215 323.83527765 -140.0078125 327.16796875 C-142.26439462 330.83022532 -144.51090238 334.49806593 -146.7421875 338.17578125 C-157.878251 356.45229194 -157.878251 356.45229194 -164.125 358.1875 C-172.63123512 355.98761161 -178.06671539 349.3338288 -182.75 342.25 C-184.42712094 339.23296403 -185.88688506 336.14249142 -187.3125 333 C-187.69817139 332.16879639 -188.08384277 331.33759277 -188.48120117 330.48120117 C-191.02943435 324.95063909 -193.42789636 319.36813552 -195.7109375 313.72265625 C-196.61251435 311.57717451 -197.59671181 309.55298753 -198.6875 307.5 C-201.00799778 303.00811273 -202.65657278 298.26226221 -204.39599609 293.52539062 C-207.3534152 285.51795154 -210.75377153 277.71400698 -214.23828125 269.921875 C-214.69589844 268.87515625 -215.15351562 267.8284375 -215.625 266.75 C-216.03492188 265.8321875 -216.44484375 264.914375 -216.8671875 263.96875 C-218.62805992 258.54588626 -217.70982089 254.47233452 -215.75 249.25 C-214.65069377 247.15746542 -213.49347749 245.09475532 -212.29296875 243.05859375 C-211.95364822 242.48018234 -211.6143277 241.90177094 -211.26472473 241.30583191 C-210.16151053 239.42952708 -209.04984775 237.55840215 -207.9375 235.6875 C-207.16709068 234.38278377 -206.3969105 233.07793221 -205.62695312 231.77294922 C-200.06606641 222.3701462 -194.36461928 213.05862108 -188.578125 203.79296875 C-185.82072824 199.3765687 -183.13239336 194.92368388 -180.46484375 190.45239258 C-176.59259106 183.96927693 -172.67096147 177.51621984 -168.75 171.0625 C-168.01440393 169.85148134 -167.27880823 168.64046246 -166.54321289 167.42944336 C-163.53273402 162.47377754 -160.52129807 157.51869366 -157.50927734 152.56396484 C-148.54570818 137.81873419 -139.6090232 123.0583742 -130.75 108.25 C-122.256023 94.05182181 -113.69264085 79.89665245 -105.09747314 65.75958252 C-102.09880931 60.82648814 -99.10706153 55.88922491 -96.11662292 50.95114136 C-92.94544904 45.71602574 -89.76315259 40.48773596 -86.57861328 35.26074219 C-84.96823489 32.60931544 -83.37053276 29.95083365 -81.77734375 27.2890625 C-72.42920907 11.79452053 -60.92366081 -1.44809017 -43.08203125 -6.86328125 C-28.34235227 -10.33986479 -12.46992146 -8.63040886 0 0 Z " fill="#FCFCFD" transform="translate(930.75,524.75)"/>
<path d="M0 0 C14.08286374 10.66104432 25.79157216 26.23139759 28.375 44.1875 C29.79078521 65.55592126 26.37613971 85.091243 11.9375 101.625 C10.43721569 103.16610838 8.91695293 104.68808371 7.375 106.1875 C6.68921875 106.89390625 6.0034375 107.6003125 5.296875 108.328125 C-7.56799771 120.8118163 -25.03712234 125.47278072 -42.52636719 125.43188477 C-61.5290899 125.13938813 -77.44252442 117.62297258 -90.625 104.1875 C-97.32228177 96.67568396 -102.02947716 88.56812691 -105.625 79.1875 C-105.9653125 78.30320312 -106.305625 77.41890625 -106.65625 76.5078125 C-111.0424614 62.49630386 -110.55988118 44.6288041 -104.625 31.1875 C-104.20089844 30.17816406 -103.77679688 29.16882813 -103.33984375 28.12890625 C-95.69146562 11.4047368 -81.63162318 -1.93974547 -64.49267578 -8.64697266 C-42.09673148 -16.54821821 -19.45153044 -13.57886893 0 0 Z " fill="#B572FB" transform="translate(462.625,345.8125)"/>
<path d="M0 0 C0.33 0 0.66 0 1 0 C1.33 13.53 1.66 27.06 2 41 C2.33 41 2.66 41 3 41 C3.11643089 52.60575711 3.20498592 64.21137269 3.25906086 75.81759739 C3.28502904 81.20828105 3.32019077 86.59856181 3.37719727 91.98901367 C3.43197635 97.20214166 3.46151634 102.41488489 3.47438622 107.62827873 C3.48354441 109.60598739 3.50142555 111.5836777 3.52865028 113.56122017 C3.73840806 129.44565225 1.72409014 142.30132229 -7 156 C-7.99 156 -8.98 156 -10 156 C-9.4225 154.86820313 -8.845 153.73640625 -8.25 152.5703125 C-7.49979009 151.08864793 -6.74980153 149.60687127 -6 148.125 C-5.42765625 147.00544922 -5.42765625 147.00544922 -4.84375 145.86328125 C-4.30234375 144.79013672 -4.30234375 144.79013672 -3.75 143.6953125 C-3.41484375 143.03547363 -3.0796875 142.37563477 -2.734375 141.69580078 C-1.86753587 140.0021145 -1.86753587 140.0021145 -2 138 C-1.34 138 -0.68 138 0 138 C-0.33 136.35 -0.66 134.7 -1 133 C-0.34 133 0.32 133 1 133 C0.67 132.01 0.34 131.02 0 130 C-0.09043671 128.23650694 -0.12195732 126.46974336 -0.12025452 124.70393372 C-0.12162918 123.6059697 -0.12300385 122.50800568 -0.12442017 121.37677002 C-0.12082489 120.17195984 -0.11722961 118.96714966 -0.11352539 117.72583008 C-0.11367142 116.45742783 -0.11381744 115.18902557 -0.1139679 113.88218689 C-0.11425511 110.40312252 -0.10837057 106.92409254 -0.10139394 103.44503617 C-0.09514785 99.80952519 -0.0945556 96.17401344 -0.09336853 92.53849792 C-0.09025893 85.65372618 -0.08205052 78.76897028 -0.07201904 71.88420552 C-0.06084641 64.04631871 -0.05534455 56.20843114 -0.05032361 48.37053835 C-0.03986761 32.24701628 -0.02227533 16.12351016 0 0 Z " fill="#C6AEEB" transform="translate(472,718)"/>
<path d="M0 0 C0.99 1.485 0.99 1.485 2 3 C-13.47090974 20.86715591 -13.47090974 20.86715591 -18 26 C-18.62028076 26.70511719 -19.24056152 27.41023437 -19.87963867 28.13671875 C-25.41146886 34.35962592 -31.16839646 40.32389322 -37.06616211 46.1965332 C-38.56806925 47.69304925 -40.06451062 49.194883 -41.56054688 50.69726562 C-46.86751794 56.00844779 -52.26529822 61.14837425 -58 66 C-59.28161257 67.10244323 -60.56286481 68.20530549 -61.84375 69.30859375 C-63.06213052 70.35199409 -64.28087728 71.39496694 -65.5 72.4375 C-66.13164063 72.97826172 -66.76328125 73.51902344 -67.4140625 74.07617188 C-68.94237701 75.38450172 -70.47113915 76.69230863 -72 78 C-72.99 77.34 -73.98 76.68 -75 76 C-74.35675781 75.48953125 -73.71351563 74.9790625 -73.05078125 74.453125 C-65.95248593 68.74208568 -59.25380701 62.71414777 -52.60546875 56.4921875 C-51.08142995 55.07568428 -49.54470569 53.67515329 -48 52.28125 C-37.45595384 42.74674018 -27.15836752 32.88892953 -18 22 C-17.04426817 20.8947084 -16.08709435 19.79066291 -15.12890625 18.6875 C-9.86072394 12.6088281 -4.70412118 6.53350164 0 0 Z " fill="#E1E1E6" transform="translate(1006,921)"/>
<path d="M0 0 C0 0.33 0 0.66 0 1 C-0.9075 1.12375 -1.815 1.2475 -2.75 1.375 C-5.87801553 1.80432631 -5.87801553 1.80432631 -7.9375 3.0625 C-10.94662515 4.43028416 -13.72564824 4.05744477 -17 4 C-17.78375 4.165 -18.5675 4.33 -19.375 4.5 C-22.59700974 5.11371614 -25.64382812 5.02678968 -28.9140625 4.9375 C-31.19684617 4.90579667 -31.19684617 4.90579667 -34 6 C-35.39439664 6.06665376 -36.79169875 6.08538199 -38.1875 6.0625 C-40.0746875 6.0315625 -40.0746875 6.0315625 -42 6 C-42 5.67 -42 5.34 -42 5 C-51.57 5 -61.14 5 -71 5 C-71 5.33 -71 5.66 -71 6 C-77.75 6.125 -77.75 6.125 -80 5 C-83.6081916 4.96904738 -87.20549459 5.06776369 -90.8125 5.16015625 C-94 5 -94 5 -96 3 C-92.6893784 1.89645947 -90.28043843 1.89273852 -86.79467773 1.91821289 C-84.87007973 1.92800926 -84.87007973 1.92800926 -82.90660095 1.93800354 C-81.87613805 1.94661502 -81.87613805 1.94661502 -80.82485771 1.95540047 C-78.65634853 1.97287581 -76.48791417 1.98312133 -74.3193512 1.99131775 C-68.15236307 2.01566246 -61.98547303 2.05063872 -55.81860352 2.09594727 C-33.60548353 2.39242249 -33.60548353 2.39242249 -11.50805664 0.43530273 C-7.61156163 -0.04819999 -3.92252351 -0.06896804 0 0 Z " fill="#DDDDE2" transform="translate(679,1105)"/>
<path d="M0 0 C0.66 0.33 1.32 0.66 2 1 C-0.21325521 4.01002709 -2.4447134 6.40694435 -5.375 8.6875 C-12.18837556 14.37747102 -15.69336823 22.94737909 -19 31 C-19.66 31 -20.32 31 -21 31 C-21.33 31.99 -21.66 32.98 -22 34 C-21.41700892 21.17419616 -12.79377089 11.48824713 -4 3 C-2.69068596 1.96875098 -1.3671934 0.95318413 0 0 Z " fill="#A473EB" transform="translate(538,521)"/>
<path d="M0 0 C5.79185255 4.08250925 10.97609819 8.65367053 16.171875 13.46484375 C19.67531988 16.60536271 23.34895649 19.47342296 27.1015625 22.30859375 C29 24 29 24 30 27 C26.09083099 25.29869906 22.8832465 22.7493721 19.5625 20.125 C18.95647949 19.64828857 18.35045898 19.17157715 17.72607422 18.68041992 C11.17493681 13.45460322 5.06667915 7.77443049 -1 2 C-0.67 1.34 -0.34 0.68 0 0 Z " fill="#E0E0E4" transform="translate(291,978)"/>
<path d="M0 0 C0.66 0.99 1.32 1.98 2 3 C-1.80293634 7.39196257 -5.60767848 11.78234707 -9.41455078 16.17089844 C-10.69342997 17.64631619 -11.97010977 19.12364018 -13.24609375 20.6015625 C-16.37535129 24.21170817 -19.56958214 27.67353419 -23 31 C-23.33 30.01 -23.66 29.02 -24 28 C-23.52691406 27.55011719 -23.05382812 27.10023438 -22.56640625 26.63671875 C-14.18253237 18.48164454 -7.11115226 9.26050375 0 0 Z " fill="#E2E2E6" transform="translate(1006,921)"/>
<path d="M0 0 C2.97761371 1.48880686 3.09166992 3.891613 4.15234375 6.87109375 C5.77721486 10.95199124 8.16348656 14.16348656 11.25 17.25 C11.8275 17.8275 12.405 18.405 13 19 C13 19.66 13 20.32 13 21 C13.515625 21.226875 14.03125 21.45375 14.5625 21.6875 C17.32824128 23.1767453 19.78325789 24.93075409 22.31640625 26.78125 C23.85087948 27.89205197 25.42382152 28.94921434 27 30 C24 31 24 31 22.0546875 30.1015625 C11.7856639 23.14512716 3.13473228 14.86418474 -0.71875 2.73828125 C-0.8115625 2.16464844 -0.904375 1.59101562 -1 1 C-0.67 0.67 -0.34 0.34 0 0 Z " fill="#C2AAEE" transform="translate(371,860)"/>
<path d="M0 0 C1.99786251 0.48224267 3.99443534 0.97041708 5.984375 1.484375 C12.56007705 2.60871784 19.35075654 2.12651837 26 2 C26.99 2 27.98 2 29 2 C29 2.66 29 3.32 29 4 C19.15060936 7.18883666 6.48759304 5.44258236 -3 2 C-2.01 1.34 -1.02 0.68 0 0 Z " fill="#B59AE8" transform="translate(404,892)"/>
<path d="M0 0 C0.99 0.495 0.99 0.495 2 1 C1.99476318 1.97348389 1.98952637 2.94696777 1.98413086 3.94995117 C1.96597883 7.574779 1.95453077 11.19960283 1.94506836 14.82446289 C1.94005144 16.39087602 1.93323638 17.9572845 1.92456055 19.52368164 C1.91237906 21.78012239 1.90674519 24.03650102 1.90234375 26.29296875 C1.89718246 26.98899704 1.89202118 27.68502533 1.88670349 28.40214539 C1.8861878 32.91041922 2.33823412 36.8943813 3.6875 41.1875 C3.790625 41.785625 3.89375 42.38375 4 43 C3.34 43.66 2.68 44.32 2 45 C0.15640021 39.51704491 -0.27011196 34.76517952 -0.1953125 29.00390625 C-0.1924826 28.17036118 -0.18965271 27.3368161 -0.18673706 26.47801208 C-0.17562289 23.8393564 -0.15053515 21.20105152 -0.125 18.5625 C-0.11495885 16.76367681 -0.10583499 14.96484825 -0.09765625 13.16601562 C-0.07571235 8.77721045 -0.04124387 4.38866452 0 0 Z " fill="#D8C1FA" transform="translate(367,815)"/>
<path d="M0 0 C0.33 0.99 0.66 1.98 1 3 C-2.09015221 6.13949141 -5.18674696 9.27243757 -8.28955078 12.39941406 C-9.34474509 13.4646826 -10.39813964 14.53173697 -11.44970703 15.60058594 C-12.95919727 17.13426216 -14.47498699 18.66145568 -15.9921875 20.1875 C-17.35899658 21.57001953 -17.35899658 21.57001953 -18.75341797 22.98046875 C-21 25 -21 25 -23 25 C-21.43717018 21.23396131 -19.0936525 18.86360849 -16.2109375 16.015625 C-15.74765045 15.55516785 -15.2843634 15.09471069 -14.80703735 14.62030029 C-13.33434102 13.15874922 -11.85482597 11.70432832 -10.375 10.25 C-9.37193678 9.25697389 -8.36932743 8.26348911 -7.3671875 7.26953125 C-4.91669165 4.84102059 -2.4600333 2.41885325 0 0 Z " fill="#E6E6EA" transform="translate(982,950)"/>
<path d="M0 0 C4.08335544 0.52886833 5.94353018 2.59629038 8.765625 5.47265625 C10.09980469 6.82133789 10.09980469 6.82133789 11.4609375 8.19726562 C12.38132812 9.14279297 13.30171875 10.08832031 14.25 11.0625 C15.19461673 12.02216973 16.13992195 12.98116229 17.0859375 13.93945312 C19.39749172 16.28638828 21.7017634 18.64003391 24 21 C23.34 21.66 22.68 22.32 22 23 C18.8636964 19.88834095 15.73063335 16.77346679 12.60058594 13.65551758 C11.53442344 12.59439642 10.46736689 11.5341728 9.39941406 10.47485352 C7.86810398 8.95561777 6.3399957 7.43322584 4.8125 5.91015625 C3.89082031 4.99371338 2.96914063 4.07727051 2.01953125 3.13305664 C0 1 0 1 0 0 Z " fill="#EBECEF" transform="translate(956,250)"/>
<path d="M0 0 C0.99 0.33 1.98 0.66 3 1 C3.09796875 1.680625 3.1959375 2.36125 3.296875 3.0625 C4.14998983 6.62662417 5.64398384 9.73039831 7.25 13 C11.00139327 20.8204058 14.25473151 28.76419454 17 37 C16.34 37 15.68 37 15 37 C13.34533463 33.28323138 11.69130655 29.56617985 10.0378418 25.84887695 C9.47648902 24.58708227 8.91496897 23.32536198 8.35327148 22.0637207 C7.54105234 20.23929602 6.72950559 18.41457204 5.91796875 16.58984375 C5.43094482 15.49534912 4.9439209 14.40085449 4.44213867 13.27319336 C3.96623291 12.19303955 3.49032715 11.11288574 3 10 C2.71984039 9.38553009 2.43968079 8.77106018 2.15103149 8.13796997 C0.85583926 5.24371877 0 3.20867522 0 0 Z " fill="#A277F2" transform="translate(520,585)"/>
<path d="M0 0 C-2.20503508 2.20503508 -3.0429317 2.3958569 -6 3 C-6.68876221 3.16387207 -7.37752441 3.32774414 -8.0871582 3.49658203 C-10.49286089 4.05217279 -12.90227265 4.58939392 -15.3125 5.125 C-16.55676758 5.41697266 -16.55676758 5.41697266 -17.82617188 5.71484375 C-22.94165489 6.83726228 -26.86681246 7.09452582 -32 6 C-32 5.67 -32 5.34 -32 5 C-31.10075806 4.83395264 -31.10075806 4.83395264 -30.18334961 4.66455078 C-27.43407506 4.15484636 -24.68579426 3.63996278 -21.9375 3.125 C-20.99455078 2.95097656 -20.05160156 2.77695313 -19.08007812 2.59765625 C-14.98763179 1.82764893 -10.95845435 1.04612665 -6.96875 -0.15625 C-4.05424231 -0.98458376 -2.76921211 -1.10768485 0 0 Z " fill="#D7D7DC" transform="translate(739,1095)"/>
<path d="M0 0 C0.66 0.33 1.32 0.66 2 1 C2 6.28 2 11.56 2 17 C1.67 17 1.34 17 1 17 C0.67 23.27 0.34 29.54 0 36 C-0.33 36 -0.66 36 -1 36 C-1.02465098 31.03377651 -1.04283649 26.06758834 -1.05493164 21.10131836 C-1.0599719 19.41055684 -1.06680405 17.71979971 -1.07543945 16.02905273 C-1.08751857 13.60399293 -1.09323123 11.17899056 -1.09765625 8.75390625 C-1.10281754 7.99348526 -1.10797882 7.23306427 -1.11329651 6.44960022 C-1.11349238 4.6326743 -1.06197277 2.81586873 -1 1 C-0.67 0.67 -0.34 0.34 0 0 Z " fill="#E5E6E9" transform="translate(1114,594)"/>
<path d="M0 0 C3.49149358 0.58039665 5.11609899 1.75770372 7.56640625 4.2734375 C8.21673828 4.9334375 8.86707031 5.5934375 9.53710938 6.2734375 C10.53967773 7.31371094 10.53967773 7.31371094 11.5625 8.375 C12.23474609 9.06078125 12.90699219 9.7465625 13.59960938 10.453125 C14.85185097 11.73148087 16.10098289 13.01289577 17.34594727 14.29833984 C18.88339788 15.88004181 20.43628681 17.44430585 22 19 C18 19 18 19 15.89355469 17.36352539 C15.16040039 16.61578857 14.42724609 15.86805176 13.671875 15.09765625 C12.87265625 14.29005859 12.0734375 13.48246094 11.25 12.65039062 C10.0125 11.36938477 10.0125 11.36938477 8.75 10.0625 C7.90953125 9.21236328 7.0690625 8.36222656 6.203125 7.48632812 C0 1.16739803 0 1.16739803 0 0 Z " fill="#E8E7EA" transform="translate(265,955)"/>
<path d="M0 0 C-6.80878329 3.8176415 -13.53620445 6.7079087 -21 8.9375 C-22.09429321 9.27237427 -22.09429321 9.27237427 -23.21069336 9.61401367 C-26.89401175 10.66694044 -29.34921111 11.13281239 -33 10 C-29.59916921 8.07815459 -26.23685016 7.23082631 -22.4375 6.375 C-21.30183594 6.11460937 -20.16617188 5.85421875 -18.99609375 5.5859375 C-16 5 -16 5 -13 5 C-13 4.34 -13 3.68 -13 3 C-9.535 2.505 -9.535 2.505 -6 2 C-6 1.34 -6 0.68 -6 0 C-3.50907189 -1.24546405 -2.58919267 -0.7767578 0 0 Z " fill="#6B84F0" transform="translate(752,897)"/>
<path d="M0 0 C0.99 0.33 1.98 0.66 3 1 C2.319375 1.33 1.63875 1.66 0.9375 2 C-2.44445033 4.30260448 -4.66646959 6.94711266 -7.28515625 10.05859375 C-9.31117422 12.35228608 -11.52794966 14.20214521 -14 16 C-14.66 15.67 -15.32 15.34 -16 15 C-6.26880642 3.63590772 -6.26880642 3.63590772 0 0 Z " fill="#BA78EE" transform="translate(384,345)"/>
<path d="M0 0 C3.72355269 3.66909488 7.2943376 7.44674879 10.8125 11.3125 C11.56563477 12.13717773 11.56563477 12.13717773 12.33398438 12.97851562 C13.55703968 14.31805239 14.77867008 15.65888992 16 17 C15.34 17.66 14.68 18.32 14 19 C12.41348318 17.44073252 10.83092685 15.87743482 9.25 14.3125 C8.36828125 13.44238281 7.4865625 12.57226562 6.578125 11.67578125 C0 4.84848485 0 4.84848485 0 0 Z " fill="#E3E2E7" transform="translate(247,932)"/>
<path d="M0 0 C0.66 0.66 1.32 1.32 2 2 C-4.09977798 7.14668767 -10.103968 11.96647185 -17 16 C-16.61823342 13.48650576 -16.25496173 12.25067368 -14.41772461 10.44433594 C-13.75264893 9.96254883 -13.08757324 9.48076172 -12.40234375 8.984375 C-11.68369141 8.45585938 -10.96503906 7.92734375 -10.22460938 7.3828125 C-9.46986328 6.84398437 -8.71511719 6.30515625 -7.9375 5.75 C-7.17888672 5.19570313 -6.42027344 4.64140625 -5.63867188 4.0703125 C-3.76578134 2.70392695 -1.88630798 1.34777038 0 0 Z " fill="#DFDFE4" transform="translate(925,1002)"/>
<path d="M0 0 C0.99 0 1.98 0 3 0 C1.29633652 8.56315064 -1.46357205 15.54205372 -6 23 C-6.99 23 -7.98 23 -9 23 C-8.4225 21.86820313 -7.845 20.73640625 -7.25 19.5703125 C-6.49979009 18.08864793 -5.74980153 16.60687127 -5 15.125 C-4.6184375 14.37863281 -4.236875 13.63226562 -3.84375 12.86328125 C-3.4828125 12.14785156 -3.121875 11.43242188 -2.75 10.6953125 C-2.24726563 9.7055542 -2.24726563 9.7055542 -1.734375 8.69580078 C-0.86753587 7.0021145 -0.86753587 7.0021145 -1 5 C-0.34 5 0.32 5 1 5 C0.67 3.35 0.34 1.7 0 0 Z " fill="#C1A5F2" transform="translate(471,851)"/>
<path d="M0 0 C0.33 0.99 0.66 1.98 1 3 C-0.36328125 5.26171875 -0.36328125 5.26171875 -2.3125 7.6875 C-2.94800781 8.49574219 -3.58351563 9.30398438 -4.23828125 10.13671875 C-4.81964844 10.75160156 -5.40101563 11.36648438 -6 12 C-6.66 12 -7.32 12 -8 12 C-8.66 13.32 -9.32 14.64 -10 16 C-11.32 15.67 -12.64 15.34 -14 15 C-12.73542969 13.75283203 -12.73542969 13.75283203 -11.4453125 12.48046875 C-10.33840925 11.38294603 -9.2316457 10.28528241 -8.125 9.1875 C-7.56941406 8.64029297 -7.01382812 8.09308594 -6.44140625 7.52929688 C-5.90644531 6.99755859 -5.37148438 6.46582031 -4.8203125 5.91796875 C-4.32805176 5.43094482 -3.83579102 4.9439209 -3.32861328 4.44213867 C-1.77411511 2.82996499 -1.77411511 2.82996499 0 0 Z " fill="#23274B" transform="translate(272,270)"/>
<path d="M0 0 C0.33 0 0.66 0 1 0 C1 5.61 1 11.22 1 17 C1.66 17 2.32 17 3 17 C3.13277344 17.60328125 3.26554688 18.2065625 3.40234375 18.828125 C3.66724609 20.02695312 3.66724609 20.02695312 3.9375 21.25 C4.19853516 22.43335938 4.19853516 22.43335938 4.46484375 23.640625 C4.947556 25.76878703 5.46163178 27.88532842 6 30 C5.34 30.33 4.68 30.66 4 31 C-0.17497101 20.45074289 -0.45205756 11.18842453 0 0 Z " fill="#8B62D2" transform="translate(515,555)"/>
<path d="M0 0 C0.99 0.33 1.98 0.66 3 1 C2.35922535 4.00618745 1.68837978 7.0043611 1 10 C0.84402344 10.69996094 0.68804687 11.39992188 0.52734375 12.12109375 C0.0625 14 0.0625 14 -1 17 C-1.99 17.33 -2.98 17.66 -4 18 C-3.35155914 13.80716882 -2.48783354 9.73500079 -1.4375 5.625 C-1.16808594 4.56539063 -0.89867187 3.50578125 -0.62109375 2.4140625 C-0.31365234 1.21910156 -0.31365234 1.21910156 0 0 Z " fill="#2E3257" transform="translate(152,477)"/>
<path d="M0 0 C-2.44462067 5.46727972 -6.55749134 9.8047298 -11.9375 12.4375 C-12.9584375 12.7159375 -12.9584375 12.7159375 -14 13 C-14 11 -14 11 -11.9375 8.75 C-2.79570896 0 -2.79570896 0 0 0 Z " fill="#C1A8F3" transform="translate(463,875)"/>
<path d="M0 0 C0.66 0 1.32 0 2 0 C2.25394531 0.64066406 2.50789062 1.28132812 2.76953125 1.94140625 C3.11371094 2.80636719 3.45789063 3.67132812 3.8125 4.5625 C4.1734375 5.47386719 4.534375 6.38523437 4.90625 7.32421875 C5.8143637 9.54585405 6.79116967 11.70467306 7.8125 13.875 C9.05537349 17.1457197 9.00271664 17.84860486 8 21 C6.84475582 18.62918558 5.70074792 16.25396043 4.5625 13.875 C4.07426758 12.87726562 4.07426758 12.87726562 3.57617188 11.859375 C1.69415567 7.90132029 0.48773294 4.41020487 0 0 Z " fill="#7A88FC" transform="translate(726,819)"/>
<path d="M0 0 C0.66 0.99 1.32 1.98 2 3 C1.1015625 5.69921875 1.1015625 5.69921875 -0.375 8.6875 C-0.85710938 9.68136719 -1.33921875 10.67523437 -1.8359375 11.69921875 C-2.22007812 12.45847656 -2.60421875 13.21773437 -3 14 C-3.66 14 -4.32 14 -5 14 C-5.33 14.99 -5.66 15.98 -6 17 C-5.57664615 10.50857435 -3.08900201 5.66507011 0 0 Z " fill="#9D6BE5" transform="translate(522,538)"/>
<path d="M0 0 C3.90285767 1.58667578 6.33520982 4.13350481 9.25 7.125 C10.14203125 8.03507813 11.0340625 8.94515625 11.953125 9.8828125 C12.62859375 10.58148437 13.3040625 11.28015625 14 12 C13.34 12.66 12.68 13.32 12 14 C9.99387601 12.04761147 7.99507567 10.08862178 6 8.125 C5.42765625 7.56941406 4.8553125 7.01382813 4.265625 6.44140625 C2.80549218 4.99865596 1.39850702 3.5025626 0 2 C0 1.34 0 0.68 0 0 Z " fill="#292F4C" transform="translate(272,958)"/>
<path d="M0 0 C2 2 2 2 2.08203125 4.20703125 C1.5699096 9.15754056 1.12300118 12.9265202 -2 17 C-3.44715727 13.12813552 -2.5441918 10.1767672 -1.5625 6.25 C-1.27503906 5.07953125 -0.98757812 3.9090625 -0.69140625 2.703125 C-0.46324219 1.81109375 -0.23507813 0.9190625 0 0 Z " fill="#2B2E53" transform="translate(146,500)"/>
<path d="M0 0 C1.79093191 -0.08086147 3.58289628 -0.13912702 5.375 -0.1875 C6.87160156 -0.23970703 6.87160156 -0.23970703 8.3984375 -0.29296875 C9.25695312 -0.19628906 10.11546875 -0.09960938 11 0 C11.66 0.99 12.32 1.98 13 3 C7.39 3 1.78 3 -4 3 C-2.68 2.67 -1.36 2.34 0 2 C0 1.34 0 0.68 0 0 Z " fill="#7B8DF9" transform="translate(705,905)"/>
<path d="M0 0 C0.99 0.99 1.98 1.98 3 3 C2.01 4.485 2.01 4.485 1 6 C0.83306456 8.64561717 0.83306456 8.64561717 1 11.5 C1.22222222 16.66666667 1.22222222 16.66666667 -1 20 C-1.02696009 17.2291017 -1.04681952 14.4584655 -1.0625 11.6875 C-1.07087891 10.90181641 -1.07925781 10.11613281 -1.08789062 9.30664062 C-1.09111328 8.54931641 -1.09433594 7.79199219 -1.09765625 7.01171875 C-1.10289307 6.31522217 -1.10812988 5.61872559 -1.11352539 4.90112305 C-1 3 -1 3 0 0 Z " fill="#AD77FA" transform="translate(517,552)"/>
<path d="M0 0 C0 0.33 0 0.66 0 1 C-0.9075 1.12375 -1.815 1.2475 -2.75 1.375 C-5.87646515 1.78605071 -5.87646515 1.78605071 -7.84375 3.09375 C-10.79008947 4.33206659 -12.65620011 3.78795712 -15.75 3.125 C-16.73484375 2.92132812 -17.7196875 2.71765625 -18.734375 2.5078125 C-19.85585938 2.25644531 -19.85585938 2.25644531 -21 2 C-21 1.67 -21 1.34 -21 1 C-13.98441385 0.4011085 -7.04321257 -0.13810221 0 0 Z " fill="#C5C6CE" transform="translate(679,1105)"/>
<path d="M0 0 C2.5 0.25 2.5 0.25 4.5 2.25 C7.06916657 2.55599063 9.54758384 2.76087087 12.125 2.875 C13.18460938 2.93300781 13.18460938 2.93300781 14.265625 2.9921875 C16.00998524 3.08647724 17.75495691 3.16932891 19.5 3.25 C19.5 3.58 19.5 3.91 19.5 4.25 C2.6070615 4.6190205 2.6070615 4.6190205 -4.5 2.25 C-2.5 0.25 -2.5 0.25 0 0 Z " fill="#5365C6" transform="translate(696.5,904.75)"/>
<path d="M0 0 C0.33 0 0.66 0 1 0 C1.2545727 3.93629132 1.47429232 7.87376868 1.6875 11.8125 C1.76033203 12.93205078 1.83316406 14.05160156 1.90820312 15.20507812 C1.96298828 16.27822266 2.01777344 17.35136719 2.07421875 18.45703125 C2.13182373 19.44678955 2.18942871 20.43654785 2.2487793 21.45629883 C2 24 2 24 -1 27 C-0.67 18.09 -0.34 9.18 0 0 Z " fill="#AEB1BA" transform="translate(1112,630)"/>
<path d="M0 0 C0.66 0.99 1.32 1.98 2 3 C-0.64 5.97 -3.28 8.94 -6 12 C-6.99 11.67 -7.98 11.34 -9 11 C-6.03 7.37 -3.06 3.74 0 0 Z " fill="#D5D6DC" transform="translate(1006,921)"/>
<path d="M0 0 C0.99 0.33 1.98 0.66 3 1 C4.4053516 5.43795241 5.29241839 9.32130569 5 14 C4.34 14 3.68 14 3 14 C2.01 9.38 1.02 4.76 0 0 Z " fill="#E0E1E7" transform="translate(470,545)"/>
<path d="M0 0 C6.27 0.66 12.54 1.32 19 2 C19 2.33 19 2.66 19 3 C12.13252891 4.10765663 6.73281213 3.700773 0 2 C0 1.34 0 0.68 0 0 Z " fill="#C7C8D0" transform="translate(527,1099)"/>
<path d="M0 0 C-2.25186774 2.25186774 -2.95472806 2.42386747 -6 3 C-7.7325 3.3403125 -7.7325 3.3403125 -9.5 3.6875 C-13.10318017 4.00921251 -14.00937708 3.71173812 -17 2 C-14.91952703 1.4678559 -12.83547707 0.94968214 -10.75 0.4375 C-9.58984375 0.14746094 -8.4296875 -0.14257812 -7.234375 -0.44140625 C-4.27909017 -0.95179964 -2.75565899 -1.02996165 0 0 Z " fill="#C5C5CE" transform="translate(739,1095)"/>
<path d="M0 0 C1.41764994 0.93601246 2.83407568 1.8738792 4.25 2.8125 C5.03890625 3.33457031 5.8278125 3.85664062 6.640625 4.39453125 C8.81092481 5.87134122 10.91413768 7.40689873 13 9 C10 10 10 10 7.7734375 8.92578125 C6.98195313 8.39339844 6.19046875 7.86101563 5.375 7.3125 C4.57835937 6.79300781 3.78171875 6.27351562 2.9609375 5.73828125 C0.80350348 3.82581484 0.35536481 2.81228361 0 0 Z " fill="#BDA4F0" transform="translate(385,881)"/>
<path d="M0 0 C0.33 0 0.66 0 1 0 C1.33 3.96 1.66 7.92 2 12 C2.33 12 2.66 12 3 12 C3 14.31 3 16.62 3 19 C2.01 19 1.02 19 0 19 C0 12.73 0 6.46 0 0 Z " fill="#35395A" transform="translate(133,586)"/>
<path d="M0 0 C4.2829452 0.5479083 6.85135641 2.02432804 10.3125 4.5625 C11.19550781 5.20316406 12.07851563 5.84382813 12.98828125 6.50390625 C13.65214844 6.99761719 14.31601562 7.49132812 15 8 C14.01 8.495 14.01 8.495 13 9 C10.64018187 8.06421005 8.30368736 7.06652192 6 6 C6 5.34 6 4.68 6 4 C5.34 4 4.68 4 4 4 C4 3.34 4 2.68 4 2 C2.68 2 1.36 2 0 2 C0 1.34 0 0.68 0 0 Z " fill="#BC80EC" transform="translate(452,341)"/>
<path d="M0 0 C0.66 0.66 1.32 1.32 2 2 C0.41925436 2.81752303 -1.16471223 3.62881997 -2.75 4.4375 C-3.63171875 4.88996094 -4.5134375 5.34242188 -5.421875 5.80859375 C-7.64198566 6.83455398 -9.61444619 7.51508603 -12 8 C-12.33 7.34 -12.66 6.68 -13 6 C-11.783125 5.566875 -10.56625 5.13375 -9.3125 4.6875 C-5.96260633 3.43798371 -3.00002183 1.96876433 0 0 Z " fill="#B99FEF" transform="translate(447,887)"/>
<path d="M0 0 C0.99 0.66 1.98 1.32 3 2 C-0.465 4.97 -0.465 4.97 -4 8 C-4.66 7.67 -5.32 7.34 -6 7 C-4.77065985 3.31197956 -3.06140622 2.27643027 0 0 Z " fill="#738AF2" transform="translate(758,888)"/>
<path d="M0 0 C-2.01822917 0.45572917 -4.03645833 0.91145833 -6.0546875 1.3671875 C-8.20719964 1.90474428 -8.20719964 1.90474428 -10 4 C-13 3 -13 3 -16 1 C-14.0852312 0.63571223 -12.16807707 0.28394694 -10.25 -0.0625 C-9.18265625 -0.25972656 -8.1153125 -0.45695312 -7.015625 -0.66015625 C-4.25228095 -0.97156937 -2.59053383 -0.8991416 0 0 Z " fill="#BEC0C9" transform="translate(698,1103)"/>
<path d="M0 0 C0.99 0.33 1.98 0.66 3 1 C0.61042731 4.24299151 -1.2047869 6.50902342 -5 8 C-5 5 -5 5 -2.5 2.3125 C-1.675 1.549375 -0.85 0.78625 0 0 Z " fill="#D5D5DC" transform="translate(957,974)"/>
<path d="M0 0 C2.93200474 2.85276137 5.64315404 5.65079784 8 9 C6.68 9 5.36 9 4 9 C1.75 6.75 1.75 6.75 0 4 C0 2.68 0 1.36 0 0 Z " fill="#D6D7DD" transform="translate(247,932)"/>
<path d="M0 0 C3.44428265 1.44781793 5.36130962 3.27694609 7.75 6.125 C8.36359375 6.84945313 8.9771875 7.57390625 9.609375 8.3203125 C10.29773438 9.15175781 10.29773438 9.15175781 11 10 C10.34 10.66 9.68 11.32 9 12 C7.86966702 10.75482035 6.74594964 9.50363348 5.625 8.25 C4.99851562 7.55390625 4.37203125 6.8578125 3.7265625 6.140625 C2.12494817 4.15491312 1.03479932 2.32045907 0 0 Z " fill="#222847" transform="translate(978,274)"/>
<path d="M0 0 C1.34173403 0.92543709 2.67320159 1.86577405 4 2.8125 C5.11375 3.59560547 5.11375 3.59560547 6.25 4.39453125 C6.8275 4.92433594 7.405 5.45414063 8 6 C8 6.99 8 7.98 8 9 C4.63704165 7.55873214 2.37072898 5.79407345 0 3 C0 2.01 0 1.02 0 0 Z " fill="#E0DFE4" transform="translate(278,966)"/>
<path d="M0 0 C-2.64738916 1.4606285 -3.89448334 2 -7 2 C-7 2.66 -7 3.32 -7 4 C-10.87493656 5.07637127 -12.52452927 4.94566951 -16 3 C-13.71068726 2.30364247 -11.4191243 1.61765623 -9.125 0.9375 C-8.47402344 0.73833984 -7.82304688 0.53917969 -7.15234375 0.33398438 C-2.2265625 -1.11328125 -2.2265625 -1.11328125 0 0 Z " fill="#1D2D5A" transform="translate(739,904)"/>
<path d="M0 0 C4.90290284 0.90794497 8.67560444 3.32566807 12 7 C11.01 7.495 11.01 7.495 10 8 C8.33055479 6.85821872 6.6645052 5.71147095 5 4.5625 C4.071875 3.92441406 3.14375 3.28632812 2.1875 2.62890625 C1.465625 2.09136719 0.74375 1.55382812 0 1 C0 0.67 0 0.34 0 0 Z " fill="#6C7EEC" transform="translate(663,892)"/>
<path d="M0 0 C0.99 0.33 1.98 0.66 3 1 C0.69 3.97 -1.62 6.94 -4 10 C-4.66 9.67 -5.32 9.34 -6 9 C-4.02 6.03 -2.04 3.06 0 0 Z " fill="#24274D" transform="translate(223,330)"/>
<path d="M0 0 C1.8871875 0.0309375 1.8871875 0.0309375 3.8125 0.0625 C3.8125 0.7225 3.8125 1.3825 3.8125 2.0625 C0.8425 2.7225 -2.1275 3.3825 -5.1875 4.0625 C-5.1875 3.4025 -5.1875 2.7425 -5.1875 2.0625 C-5.8475 1.7325 -6.5075 1.4025 -7.1875 1.0625 C-4.43671116 0.14557039 -2.82801087 -0.04636083 0 0 Z " fill="#24294C" transform="translate(499.1875,136.9375)"/>
<path d="M0 0 C2.96404505 2.80804268 5.44499019 5.18315774 7 9 C6.01 9 5.02 9 4 9 C0.8217901 5.7309841 0 4.67834007 0 0 Z " fill="#DEDEE3" transform="translate(234,916)"/>
<path d="M0 0 C0.99 0.33 1.98 0.66 3 1 C2.979375 1.763125 2.95875 2.52625 2.9375 3.3125 C2.87057159 6.10185786 2.87057159 6.10185786 4 9 C3.34 9.66 2.68 10.32 2 11 C0.80712589 7.12315913 0 4.08378077 0 0 Z " fill="#C1A8EF" transform="translate(367,849)"/>
<path d="M0 0 C1.1875 1.5625 1.1875 1.5625 2 4 C0.625 7.75 0.625 7.75 -1 11 C-2.1875 9.4375 -2.1875 9.4375 -3 7 C-1.625 3.25 -1.625 3.25 0 0 Z " fill="#2A2F54" transform="translate(178,408)"/>
<path d="M0 0 C1.46726798 3.81489674 0.43336419 6.29011622 -1 10 C-1.99 10 -2.98 10 -4 10 C-2.8905928 6.51329166 -1.73662334 3.22515763 0 0 Z " fill="#292D53" transform="translate(183,398)"/>
<path d="M0 0 C6.93 0.495 6.93 0.495 14 1 C14 1.33 14 1.66 14 2 C9.38 2.33 4.76 2.66 0 3 C0 2.01 0 1.02 0 0 Z " fill="#232A4B" transform="translate(558,124)"/>
<path d="M0 0 C2.64 0.33 5.28 0.66 8 1 C6.35 2.65 4.7 4.3 3 6 C2.67 5.01 2.34 4.02 2 3 C1.34 2.67 0.68 2.34 0 2 C0 1.34 0 0.68 0 0 Z " fill="#8292F4" transform="translate(761,881)"/>
<path d="M0 0 C3.81684226 1.55500981 6.19195732 4.03595495 9 7 C8.67 7.66 8.34 8.32 8 9 C6.66079162 7.88200014 5.32877444 6.75538103 4 5.625 C2.88625 4.68527344 2.88625 4.68527344 1.75 3.7265625 C1.1725 3.15679688 0.595 2.58703125 0 2 C0 1.34 0 0.68 0 0 Z " fill="#202744" transform="translate(295,980)"/>
<path d="M0 0 C3.48331435 3.01887244 4.79157144 5.56909529 6 10 C5.01 9.67 4.02 9.34 3 9 C2.05078125 6.93359375 2.05078125 6.93359375 1.3125 4.4375 C1.06113281 3.61121094 0.80976562 2.78492188 0.55078125 1.93359375 C0.36902344 1.29550781 0.18726563 0.65742187 0 0 Z " fill="#7589FC" transform="translate(740,853)"/>
<path d="M0 0 C0.33 0 0.66 0 1 0 C1.2493357 1.60115576 1.47378648 3.20620159 1.6875 4.8125 C1.87892578 6.15248047 1.87892578 6.15248047 2.07421875 7.51953125 C2 10 2 10 0.51953125 11.82421875 C-0.23263672 12.40623047 -0.23263672 12.40623047 -1 13 C-1.07654536 8.48382401 -1.10228696 4.40914783 0 0 Z " fill="#0C122F" transform="translate(954,570)"/>
<path d="M0 0 C-2.6224715 2.6224715 -4.35023127 2.64217954 -8 3 C-10.875 2.5625 -10.875 2.5625 -13 2 C-13 1.67 -13 1.34 -13 1 C-8.60563789 0.14256349 -4.47427924 -0.08948558 0 0 Z " fill="#1E1E50" transform="translate(444,469)"/>
<path d="M0 0 C-0.33 0.99 -0.66 1.98 -1 3 C-4.0625 4.1875 -4.0625 4.1875 -7 5 C-7 4.34 -7 3.68 -7 3 C-7.66 2.67 -8.32 2.34 -9 2 C-3.375 0 -3.375 0 0 0 Z " fill="#333856" transform="translate(472,145)"/>
<path d="M0 0 C4.16138263 -0.08159574 7.9472484 0.01751476 12 1 C12 1.33 12 1.66 12 2 C8.7 2.33 5.4 2.66 2 3 C1.34 2.01 0.68 1.02 0 0 Z " fill="#B9BBC5" transform="translate(569,1105)"/>
<path d="M0 0 C-0.99 0 -1.98 0 -3 0 C-3 0.66 -3 1.32 -3 2 C-5.91482778 2.80967438 -7.46113217 3.21845993 -10.3125 2.0625 C-10.869375 1.711875 -11.42625 1.36125 -12 1 C-3.96428571 -1.27678571 -3.96428571 -1.27678571 0 0 Z " fill="#C1C2CC" transform="translate(751,1092)"/>
<path d="M0 0 C0.33 0 0.66 0 1 0 C1.19491452 1.45736087 1.38069358 2.91594593 1.5625 4.375 C1.66691406 5.18710937 1.77132813 5.99921875 1.87890625 6.8359375 C2 9 2 9 1 11 C0.34 11 -0.32 11 -1 11 C-0.67 7.37 -0.34 3.74 0 0 Z " fill="#D7D8DE" transform="translate(1103,711)"/>
<path d="M0 0 C0.33 1.32 0.66 2.64 1 4 C-0.9375 6.75 -0.9375 6.75 -3 9 C-3.66 8.67 -4.32 8.34 -5 8 C-3.35 5.36 -1.7 2.72 0 0 Z " fill="#282B4E" transform="translate(214,343)"/>
<path d="M0 0 C0 0.99 0 1.98 0 3 C-2.875 3.625 -2.875 3.625 -6 4 C-6.66 3.34 -7.32 2.68 -8 2 C-5.09399739 0.74335022 -3.20395416 0 0 0 Z " fill="#313757" transform="translate(455,151)"/>
<path d="M0 0 C-1.24976756 3.65316671 -1.67098753 4.78065836 -5 7 C-5.33 6.01 -5.66 5.02 -6 4 C-2.25 0 -2.25 0 0 0 Z " fill="#D7D7DD" transform="translate(988,945)"/>
<path d="M0 0 C0.93065133 2.60582371 1.14917407 3.64198224 0.0625 6.25 C-0.4634375 7.11625 -0.4634375 7.11625 -1 8 C-1.99 7.67 -2.98 7.34 -4 7 C-2.68 4.69 -1.36 2.38 0 0 Z " fill="#E9EAEF" transform="translate(765,691)"/>
<path d="M0 0 C0.33 0 0.66 0 1 0 C1.07654536 4.51617599 1.10228696 8.59085217 0 13 C-0.33 13 -0.66 13 -1 13 C-2.0070238 7.96488101 -1.97387813 4.76052962 0 0 Z " fill="#555C71" transform="translate(1110,660)"/>
<path d="M0 0 C3.465 1.98 3.465 1.98 7 4 C6.01 4.66 5.02 5.32 4 6 C2.35 4.35 0.7 2.7 -1 1 C-0.67 0.67 -0.34 0.34 0 0 Z " fill="#DCDBE1" transform="translate(331,1011)"/>
<path d="M0 0 C-1.39332574 3.36720387 -2.9789286 4.9859524 -6 7 C-5.37162381 3.35541809 -4.14650034 0 0 0 Z " fill="#272E46" transform="translate(982,949)"/>
<path d="M0 0 C0.99 0 1.98 0 3 0 C4.75 2.375 4.75 2.375 6 5 C5.67 5.66 5.34 6.32 5 7 C3.29115995 5.37660195 1.62553283 3.70680947 0 2 C0 1.34 0 0.68 0 0 Z " fill="#CFB9F8" transform="translate(379,876)"/>
<path d="M0 0 C0.66 0.66 1.32 1.32 2 2 C1.625 4.125 1.625 4.125 1 6 C0.34 6 -0.32 6 -1 6 C-1.33 6.99 -1.66 7.98 -2 9 C-1.125 2.25 -1.125 2.25 0 0 Z " fill="#855ECE" transform="translate(518,546)"/>
</svg>
